<svg width="768" height="768" viewBox="0 0 768 768" fill="none" xmlns="http://www.w3.org/2000/svg">
  <rect width="768" height="768" rx="200" fill="#F2FBFF"/>
  <circle cx="384" cy="360" r="200" fill="#6DD7E8"/>
  <g stroke="#0F6A83" stroke-width="36" stroke-linecap="round" stroke-linejoin="round" fill="none">
    <path d="M211 321c-44-3-79-35-79-74 0-41 35-75 78-75 44 0 79 34 79 75v24c0 24-19 43-43 43h-35z" fill="#F2FBFF"/>
    <path d="M557 321c44-3 79-35 79-74 0-41-35-75-78-75-44 0-79 34-79 75v24c0 24 19 43 43 43h35z" fill="#F2FBFF"/>
    <path d="M240 305c53-48 105-72 144-72s91 24 144 72"/>
  </g>
  <path d="M384 518c-74 0-100-48-100-122 0-75 26-122 100-122s100 47 100 122c0 74-26 122-100 122z" fill="#0F6A83"/>
  <path d="M318 342c14-24 38-36 66-36 28 0 52 12 66 36" stroke="#F2FBFF" stroke-width="24" stroke-linecap="round"/>
  <path d="M360 392v16" stroke="#F2FBFF" stroke-width="28" stroke-linecap="round"/>
  <path d="M408 392v16" stroke="#F2FBFF" stroke-width="28" stroke-linecap="round"/>
  <path d="M356 456h56" stroke="#F2FBFF" stroke-width="28" stroke-linecap="round"/>
  <text x="384" y="640" text-anchor="middle" font-family="Nunito, 'Trebuchet MS', Arial, sans-serif" font-size="120" font-weight="700" fill="#0F6A83">dus</text>
</svg>
