<svg width="560" height="160" viewBox="0 0 560 160" fill="none" xmlns="http://www.w3.org/2000/svg">
  <defs>
    <radialGradient id="petalGradient" cx="34%" cy="26%" r="84%">
      <stop offset="0%" stop-color="#FCFCFC"/>
      <stop offset="38%" stop-color="#B6B6B6"/>
      <stop offset="72%" stop-color="#474747"/>
      <stop offset="100%" stop-color="#090909"/>
    </radialGradient>
  </defs>
  <g transform="translate(84 80)">
    <path d="M0 0C-7 -19 -20 -34 -35 -40C-48 -45 -59 -39 -62 -27C-65 -16 -59 -4 -47 4C-35 12 -17 11 0 0Z" fill="url(#petalGradient)"/>
    <path d="M0 0C19 -7 34 -20 40 -35C45 -48 39 -59 27 -62C16 -65 4 -59 -4 -47C-12 -35 -11 -17 0 0Z" fill="url(#petalGradient)"/>
    <path d="M0 0C7 19 20 34 35 40C48 45 59 39 62 27C65 16 59 4 47 -4C35 -12 17 -11 0 0Z" fill="url(#petalGradient)"/>
    <path d="M0 0C-19 7 -34 20 -40 35C-45 48 -39 59 -27 62C-16 65 -4 59 4 47C12 35 11 17 0 0Z" fill="url(#petalGradient)"/>
    <path d="M0 -5L5 0L0 5L-5 0Z" fill="#F4F4F4"/>
  </g>
  <text x="170" y="103" fill="#F5F5F5" font-family="Inter, Arial, sans-serif" font-size="74" font-weight="600" letter-spacing="-4">xaidus</text>
</svg>
